External Loads File
version=1
nRows=62
nColumns=13
Range=5.000000e-03-10 seconds
endheader
time 	forceRightX 	forceRightY 	forceRightZ 	pointRightX 	pointRightY 	pointRightZ 	forceLeftX 	forceLeftY 	forceLeftZ 	pointLeftX 	pointLeftY 	pointLeftZ 		
2.505000 -199.797351 771.786050 -0.000000 0.443806 0.315725 -0.125131 90.405684 -83.705493 -0.000000 0.154988 0.329372 -0.360079
2.510000 -192.735768 777.489461 -0.000000 0.443853 0.311288 -0.125197 89.098296 -85.542531 -0.000000 0.155362 0.333848 -0.360057
2.515000 -185.412493 782.224926 -0.000000 0.443956 0.306803 -0.125037 88.215159 -87.330203 -0.000000 0.155854 0.338374 -0.360102
2.520000 -178.125556 785.990027 -0.000000 0.443542 0.302367 -0.125437 87.736002 -89.036262 -0.000000 0.156361 0.342871 -0.360135
2.525000 -170.858202 788.803292 -0.000000 0.443221 0.298003 -0.125499 87.577841 -90.667061 -0.000000 0.157039 0.347389 -0.360207
2.530000 -161.067941 791.142240 -0.000000 0.442859 0.292756 -0.125455 87.322938 -92.504880 -0.000000 0.157832 0.351895 -0.360261
2.535000 -153.238890 791.994923 -0.000000 0.442519 0.288331 -0.125185 87.342836 -94.051275 -0.000000 0.158708 0.356414 -0.360298
2.540000 -144.678666 791.883620 -0.000000 0.441554 0.283882 -0.125835 87.181236 -95.615205 -0.000000 0.159809 0.360889 -0.360312
2.545000 -135.982928 790.690187 -0.000000 0.440687 0.279520 -0.125884 86.766965 -97.174764 -0.000000 0.160980 0.365403 -0.360357
2.550000 -127.093385 788.449753 -0.000000 0.439935 0.275180 -0.126213 85.939616 -98.815209 -0.000000 0.162295 0.369908 -0.360495
2.555000 -115.838475 785.511573 -0.000000 0.438950 0.270381 -0.126294 84.267566 -100.856377 -0.000000 0.163740 0.374699 -0.360567
2.560000 -106.643508 781.233105 -0.000000 0.437736 0.266111 -0.126385 82.186311 -102.877581 -0.000000 0.165336 0.379004 -0.360574
2.565000 -97.042421 776.075089 -0.000000 0.436524 0.261856 -0.126414 79.308062 -105.173864 -0.000000 0.166979 0.383456 -0.360732
2.570000 -86.733148 770.164665 -0.000000 0.435194 0.257433 -0.126456 75.567907 -107.781530 -0.000000 0.168856 0.387927 -0.360833
2.575000 -76.934412 763.473536 -0.000000 0.433733 0.253128 -0.126397 71.160263 -110.566190 -0.000000 0.170828 0.392310 -0.360783
2.580000 -67.156040 756.208870 -0.000000 0.432206 0.248833 -0.126376 66.078354 -113.540220 -0.000000 0.173046 0.396751 -0.360891
2.585000 -58.054073 748.484684 -0.000000 0.430711 0.244409 -0.126288 60.518889 -116.583862 -0.000000 0.175202 0.401149 -0.360838
2.590000 -50.375493 740.412214 -0.000000 0.429068 0.240316 -0.126234 54.762692 -119.564479 -0.000000 0.177418 0.405515 -0.360736
2.595000 -44.094979 732.114016 -0.000000 0.428147 0.236048 -0.126654 49.033764 -122.422852 -0.000000 0.179793 0.409903 -0.360799
2.600000 -36.600468 723.775452 -0.000000 0.425409 0.231867 -0.126070 43.126447 -125.282733 -0.000000 0.182217 0.414201 -0.360802
2.605000 -31.418489 715.164070 -0.000000 0.423548 0.227733 -0.126084 37.846548 -127.901258 -0.000000 0.184618 0.418509 -0.360758
2.610000 -27.652938 706.236932 -0.000000 0.421595 0.223798 -0.126084 33.211330 -130.340878 -0.000000 0.187134 0.422560 -0.360887
2.615000 -23.055992 696.878997 -0.000000 0.418708 0.219874 -0.125621 28.892759 -132.674597 -0.000000 0.189538 0.426789 -0.360689
2.620000 -20.903778 686.659833 -0.000000 0.417346 0.215800 -0.126043 25.529146 -134.697054 -0.000000 0.192211 0.430804 -0.360833
2.625000 -16.872016 675.289164 -0.000000 0.414294 0.212070 -0.125565 22.253426 -136.490599 -0.000000 0.194969 0.434712 -0.360904
2.630000 -12.766733 662.219666 -0.000000 0.411942 0.208398 -0.125552 19.350794 -137.889401 -0.000000 0.198397 0.438602 -0.361759
2.635000 -9.166485 646.980901 -0.000000 0.409509 0.204631 -0.125500 16.889475 -138.803648 -0.000000 0.201058 0.442462 -0.361379
2.640000 -4.514583 629.207950 -0.000000 0.407006 0.201151 -0.125512 14.492748 -139.208663 -0.000000 0.204268 0.446195 -0.361358
2.645000 0.142030 608.623202 -0.000000 0.404472 0.197768 -0.125469 12.335185 -138.995160 -0.000000 0.207118 0.449777 -0.361319
2.650000 6.309193 585.161730 -0.000000 0.401763 0.194460 -0.125482 9.999980 -138.068322 -0.000000 0.210252 0.453381 -0.361509
2.655000 13.214627 559.026827 -0.000000 0.398978 0.191301 -0.125469 7.558943 -136.235311 -0.000000 0.213534 0.456737 -0.361930
2.660000 20.723482 530.775886 -0.000000 0.396003 0.188394 -0.125465 4.936159 -133.318620 -0.000000 0.216751 0.460053 -0.361693
2.665000 29.244431 501.283936 -0.000000 0.392863 0.185407 -0.125453 1.912356 -129.185050 -0.000000 0.220199 0.463318 -0.361933
2.670000 37.767112 471.744984 -0.000000 0.389593 0.182606 -0.125415 -1.370780 -123.709034 -0.000000 0.223668 0.466383 -0.362050
2.675000 46.071135 443.458454 -0.000000 0.386084 0.180047 -0.125323 -4.966654 -116.767506 -0.000000 0.227139 0.469281 -0.362234
2.680000 54.310293 417.656474 -0.000000 0.382359 0.177267 -0.125226 -9.037367 -108.233970 -0.000000 0.230827 0.472005 -0.362440
2.685000 61.510292 395.541765 -0.000000 0.378453 0.174790 -0.125137 -13.439724 -98.029526 -0.000000 0.234400 0.474751 -0.362582
2.690000 67.858264 377.890054 -0.000000 0.374326 0.172284 -0.125043 -18.274489 -86.116627 -0.000000 0.238185 0.477253 -0.362733
2.695000 73.138840 365.143409 -0.000000 0.369987 0.169877 -0.124905 -23.435127 -72.573097 -0.000000 0.242127 0.479747 -0.362909
2.700000 77.009208 357.355109 -0.000000 0.365572 0.167504 -0.124807 -28.700663 -57.639927 -0.000000 0.246211 0.481897 -0.363343
2.705000 79.090919 354.180961 -0.000000 0.361131 0.165481 -0.124778 -33.831090 -41.726027 -0.000000 0.250004 0.484080 -0.363556
2.710000 79.962888 354.710043 -0.000000 0.356534 0.163514 -0.124774 -38.738808 -25.276495 -0.000000 0.253707 0.486133 -0.363733
2.715000 80.023341 357.793716 -0.000000 0.351884 0.161489 -0.124772 -43.307287 -8.801173 -0.000000 0.257453 0.488094 -0.363930
2.720000 79.319215 362.151387 -0.000000 0.347478 0.159804 -0.124592 -47.466652 7.153371 -0.000000 0.261371 0.489789 -0.363953
2.725000 78.030226 366.329094 -0.000000 0.343144 0.158289 -0.124390 -51.256145 22.124905 -0.000000 0.265062 0.491250 -0.364009
2.730000 77.675435 368.558653 -0.000000 0.338057 0.156772 -0.124864 -54.672046 35.978601 -0.000000 0.268760 0.492850 -0.363934
2.735000 75.965053 367.960292 -0.000000 0.334380 0.155494 -0.125974 -58.077071 48.169930 -0.000000 0.272365 0.494186 -0.363833
2.740000 75.946881 362.721487 -0.000000 0.329640 0.154306 -0.125945 -61.306152 59.069733 -0.000000 0.276050 0.495444 -0.363717
2.745000 77.221987 351.999569 -0.000000 0.324130 0.153294 -0.125594 -64.482430 68.654838 -0.000000 0.279648 0.496578 -0.363695
2.750000 78.918093 335.365483 -0.000000 0.318753 0.152625 -0.125222 -67.845662 76.900740 -0.000000 0.283245 0.497459 -0.363748
2.755000 80.319102 312.785545 -0.000000 0.314273 0.152021 -0.125106 -71.642212 83.850965 -0.000000 0.286866 0.498219 -0.363685
2.760000 82.155348 284.301156 -0.000000 0.309772 0.151578 -0.125051 -75.721003 89.928566 -0.000000 0.290544 0.498726 -0.363694
2.765000 83.923337 250.589432 -0.000000 0.305390 0.151160 -0.124951 -80.142643 95.387446 -0.000000 0.294140 0.499009 -0.363747
2.770000 85.453243 212.482665 -0.000000 0.300993 0.151131 -0.124920 -84.792831 100.628945 -0.000000 0.297781 0.499129 -0.363818
2.775000 86.326459 171.093055 -0.000000 0.296591 0.151047 -0.124863 -89.599543 106.021825 -0.000000 0.301522 0.499080 -0.363703
2.780000 85.981245 127.830093 -0.000000 0.292376 0.151188 -0.124768 -94.598836 111.824296 -0.000000 0.305266 0.498800 -0.363676
2.785000 84.161999 84.164389 -0.000000 0.288160 0.151422 -0.124787 -99.711297 118.332769 -0.000000 0.308894 0.498419 -0.363680
2.790000 80.695932 41.613551 -0.000000 0.284085 0.151772 -0.124621 -104.893927 125.766024 -0.000000 0.312515 0.497853 -0.363631
2.795000 75.566582 1.545712 -0.000000 0.280080 0.152334 -0.124494 -110.130958 134.307412 -0.000000 0.316050 0.497016 -0.363572
2.800000 68.880722 -34.939934 -0.000000 0.276144 0.152986 -0.124370 -115.449691 144.093176 -0.000000 0.319589 0.496167 -0.363575
2.805000 60.833411 -67.042737 -0.000000 0.272250 0.153732 -0.124205 -120.905360 155.187051 -0.000000 0.323167 0.495051 -0.363535
2.810000 51.748897 -94.192259 -0.000000 0.268494 0.154605 -0.124130 -126.657326 167.463512 -0.000000 0.326703 0.493645 -0.363599
